<svg width="18" height="20" viewBox="0 0 18 20" fill="none" xmlns="http://www.w3.org/2000/svg">
<rect width="18" height="20" fill="#F5F5F5"/>
<g id="HiChaty Features 1">
<rect id="Rectangle" x="-200" y="-628" width="1440" height="760" fill="white"/>
<g id="Chat">
<g id="End to end  encrypted">
<rect id="Rectangle 935" x="-9.16667" y="-6.16667" width="232.333" height="32.3333" rx="16.1667" fill="white" stroke="#D9D9D9" stroke-width="1.66667"/>
<path id="Stroke 1" d="M9.05685 0.804056L8.83515 0.559613L8.62029 0.809098L8.62015 0.809259L8.62 0.809432L8.61993 0.809509L8.6198 0.809668L8.61664 0.813211C8.6133 0.816936 8.60767 0.823145 8.59972 0.831663C8.58383 0.848699 8.55866 0.874961 8.52402 0.909041C8.45474 0.977208 8.34761 1.07661 8.201 1.196C7.90779 1.43477 7.4568 1.75341 6.83475 2.06229C5.59273 2.67902 3.65996 3.26127 0.92404 3.08217L0.613322 3.06183V3.37322V10.6629L0.612325 10.675C0.611034 10.6916 0.609336 10.7153 0.607545 10.7458C0.603965 10.8067 0.600014 10.8947 0.598225 11.006C0.594649 11.2284 0.599699 11.5447 0.633787 11.9251C0.701844 12.6847 0.88632 13.7076 1.35479 14.7517C1.82416 15.7978 2.57935 16.8662 3.78606 17.7074C4.99293 18.5488 6.63496 19.1513 8.85996 19.291L8.8671 19.2915L8.87425 19.2916L8.87824 18.9999C8.87425 19.2916 8.87443 19.2916 8.87464 19.2916L8.87522 19.2916L8.87692 19.2916L8.88249 19.2916L8.90218 19.2917C8.91904 19.2916 8.94329 19.2914 8.97445 19.2907C9.03674 19.2894 9.12669 19.2863 9.24036 19.2793C9.46758 19.2653 9.79018 19.2357 10.1765 19.1732C10.9478 19.0484 11.9805 18.7913 13.0167 18.26C14.0543 17.7279 15.0989 16.9189 15.8831 15.6912C16.6679 14.4625 17.1806 12.8319 17.1806 10.6754V3.37322V3.05512L16.8638 3.08263L16.8637 3.08264L16.8637 3.08264L16.8633 3.08267L16.861 3.08287L16.8505 3.0837L16.807 3.08686C16.7682 3.08952 16.7102 3.09311 16.6351 3.09672C16.4847 3.10394 16.2658 3.11121 15.9946 3.11121C15.4517 3.11121 14.7019 3.08204 13.874 2.96573C12.2055 2.7313 10.2784 2.15095 9.05685 0.804056Z" fill="white" stroke="#53A8CB" stroke-width="0.583333"/>
<g id="HiChaty New Logo" clip-path="url(#clip0_0_1)">
<g id="active_chat">
<g id="Group 119">
<g id="Union">
<mask id="path-4-outside-1_0_1" maskUnits="userSpaceOnUse" x="3.77539" y="4.95508" width="11" height="12" fill="black">
<rect fill="white" x="3.77539" y="4.95508" width="11" height="12"/>
<path fill-rule="evenodd" clip-rule="evenodd" d="M9.69369 14.391C11.7112 14.0651 13.252 12.3129 13.252 10.2002C13.252 7.85568 11.3544 5.95508 9.01367 5.95508C6.67293 5.95508 4.77539 7.85568 4.77539 10.2002C4.77539 12.4385 6.5049 14.2722 8.6984 14.4337V15.3183L9.69369 14.391Z"/>
</mask>
<path d="M9.69369 14.391L9.60648 13.8511L9.44245 13.8776L9.32089 13.9908L9.69369 14.391ZM8.6984 14.4337H9.24528V13.9257L8.73857 13.8883L8.6984 14.4337ZM8.6984 15.3183H8.15153V16.5753L9.0712 15.7184L8.6984 15.3183ZM12.7051 10.2002C12.7051 12.0409 11.3626 13.5674 9.60648 13.8511L9.7809 14.9308C12.0597 14.5627 13.7988 12.5849 13.7988 10.2002H12.7051ZM9.01367 6.50195C11.0515 6.50195 12.7051 8.15688 12.7051 10.2002H13.7988C13.7988 7.55448 11.6573 5.4082 9.01367 5.4082V6.50195ZM5.32227 10.2002C5.32227 8.15688 6.9758 6.50195 9.01367 6.50195V5.4082C6.37007 5.4082 4.22852 7.55448 4.22852 10.2002H5.32227ZM8.73857 13.8883C6.82936 13.7477 5.32227 12.1507 5.32227 10.2002H4.22852C4.22852 12.7263 6.18043 14.7967 8.65824 14.9791L8.73857 13.8883ZM9.24528 15.3183V14.4337H8.15153V15.3183H9.24528ZM9.32089 13.9908L8.32561 14.9182L9.0712 15.7184L10.0665 14.7911L9.32089 13.9908Z" fill="#53A8CB" mask="url(#path-4-outside-1_0_1)"/>
</g>
<path id="Subtract" fill-rule="evenodd" clip-rule="evenodd" d="M4.43481 11.5964C4.95023 13.2937 6.38094 14.5922 8.15234 14.9147V15.3183V16.5753L9.07202 15.7184L9.94998 14.9004C11.6867 14.5552 13.0844 13.2698 13.5925 11.5964H13.0174C12.513 13.0475 11.2446 14.1401 9.69467 14.3908L9.24609 14.8088L8.69922 15.3183V14.5708V14.4338C6.98471 14.3079 5.55355 13.1603 5.00997 11.5964H4.43481Z" fill="url(#paint0_linear_0_1)"/>
<path id="Subtract_2" fill-rule="evenodd" clip-rule="evenodd" d="M5.15238 11.5964C5.71544 13.1894 7.23471 14.3308 9.02056 14.3308C10.8064 14.3308 12.3257 13.1894 12.8887 11.5964H5.15238ZM13.1221 10.2337C13.1221 10.2322 13.1221 10.2307 13.1221 10.2292C13.1221 10.2277 13.1221 10.2262 13.1221 10.2247V10.2337Z" fill="url(#paint1_linear_0_1)"/>
<g id="Group 117">
<path id="Ellipse 4" d="M10.5904 11.0496C10.5904 10.3096 9.99197 9.70972 9.25371 9.70972C8.51546 9.70972 7.91699 10.3096 7.91699 11.0496" stroke="#53A8CB" stroke-width="0.607603"/>
<path id="Rectangle 459" d="M7.43945 8.24464C7.40525 8.05696 7.54872 7.8822 7.73948 7.8822C7.87915 7.8822 8.00048 7.97814 8.03074 8.11448C8.08213 8.34609 8.15784 8.70535 8.19648 8.97589C8.27236 9.507 8.25807 10.2453 8.23998 10.6804C8.2315 10.8843 8.0626 11.0417 7.8585 11.0417H7.61318C7.61318 11.0417 7.65995 10.0771 7.61318 9.46197C7.58439 9.08315 7.50061 8.58025 7.43945 8.24464Z" fill="#53A8CB"/>
<path id="Rectangle 462" d="M8.54064 7.30269C8.50319 7.11326 8.64726 6.93433 8.84035 6.93433C8.97761 6.93433 9.09748 7.02685 9.12981 7.16025C9.18127 7.37252 9.2549 7.69294 9.29287 7.93547C9.37205 8.44118 9.35335 9.15211 9.3343 9.54236C9.32646 9.70297 9.19314 9.82651 9.03235 9.82651C8.85589 9.82651 8.71514 9.67874 8.72051 9.50236C8.72989 9.19387 8.73652 8.72667 8.70767 8.38042C8.6799 8.04717 8.60119 7.60901 8.54064 7.30269Z" fill="#53A8CB"/>
<path id="Rectangle 463" d="M10.4624 8.26609C10.5106 8.07355 10.3669 7.8822 10.1684 7.8822C10.0417 7.8822 9.92884 7.96253 9.8905 8.08336C9.83985 8.24299 9.77276 8.46715 9.7371 8.63937C9.66323 8.99619 9.67455 9.48809 9.69187 9.79213C9.70087 9.95011 9.83303 10.0696 9.99126 10.0696C10.1702 10.0696 10.3121 9.91796 10.3064 9.7391C10.299 9.51071 10.2968 9.20752 10.3223 8.97589C10.3461 8.75999 10.4072 8.48588 10.4624 8.26609Z" fill="#53A8CB"/>
<path id="Rectangle 464" d="M6.03428 10.4363C5.81309 10.3407 5.71753 10.0728 5.8383 9.86433L5.86726 9.81434C5.97282 9.63212 6.20437 9.56684 6.38517 9.6748C6.50258 9.74491 6.6303 9.82488 6.7297 9.89656C7.18425 10.2244 7.34656 10.5649 7.34868 10.5694C7.34875 10.5696 7.34874 10.5695 7.3488 10.5697L7.39475 10.667C7.47922 10.8458 7.40484 11.0709 7.20814 11.05C7.10982 11.0395 6.99916 11 6.88959 10.904C6.70848 10.7454 6.33253 10.5651 6.03428 10.4363Z" fill="#53A8CB"/>
<path id="Rectangle 460" d="M11.2149 9.3466C11.2384 9.20739 11.3601 9.10815 11.5013 9.10815C11.6897 9.10815 11.8316 9.28129 11.803 9.46759C11.7735 9.65956 11.7449 9.89374 11.7449 10.0789C11.7449 10.4601 11.8664 11.0496 11.8664 11.0496H11.2588C11.2588 11.0496 11.1373 10.4601 11.1373 10.0789C11.1373 9.85251 11.1801 9.55279 11.2149 9.3466Z" fill="#53A8CB"/>
<path id="Rectangle 465" d="M10.4689 11.3534H10.712V11.9778C10.712 12.0449 10.6576 12.0993 10.5904 12.0993C10.5233 12.0993 10.4689 12.0449 10.4689 11.9778V11.3534Z" stroke="white" stroke-width="0.425322"/>
<rect id="Rectangle 461" x="10.4385" y="10.8169" width="0.303801" height="1.30675" rx="0.151901" stroke="#53A8CB" stroke-width="0.303801"/>
<circle id="Ellipse 5" cx="11.7206" cy="8.59921" r="0.303801" fill="#53A8CB"/>
</g>
</g>
</g>
</g>
</g>
</g>
</g>
<defs>
<linearGradient id="paint0_linear_0_1" x1="9.01367" y1="11.5964" x2="9.01367" y2="16.5753" gradientUnits="userSpaceOnUse">
<stop stop-color="#8881B9"/>
<stop offset="1" stop-color="#EC99BA"/>
</linearGradient>
<linearGradient id="paint1_linear_0_1" x1="10.7881" y1="9.50863" x2="10.7881" y2="16.9045" gradientUnits="userSpaceOnUse">
<stop stop-color="#8881B9"/>
<stop offset="1" stop-color="#EC99BA"/>
</linearGradient>
<clipPath id="clip0_0_1">
<rect width="14" height="14" fill="white" transform="translate(2 4)"/>
</clipPath>
</defs>
</svg>
